<svg width="21" height="22" viewBox="0 0 21 22" fill="none" xmlns="http://www.w3.org/2000/svg">
<path d="M18.9717 21.1279L12.2899 14.2888C11.6933 14.7773 11.0072 15.1641 10.2317 15.449C9.45609 15.734 8.6308 15.8765 7.7558 15.8765C5.58819 15.8765 3.75387 15.1083 2.25285 13.5719C0.751031 12.0348 0.00012207 10.1569 0.00012207 7.93824C0.00012207 5.7196 0.751031 3.8417 2.25285 2.30453C3.75387 0.768177 5.58819 0 7.7558 0C9.92342 0 11.7581 0.768177 13.26 2.30453C14.761 3.8417 15.5115 5.7196 15.5115 7.93824C15.5115 8.83384 15.3723 9.67855 15.0939 10.4724C14.8155 11.2662 14.4376 11.9684 13.9603 12.5791L20.672 19.4487C20.8907 19.6726 21.0001 19.9474 21.0001 20.273C21.0001 20.5987 20.8808 20.8837 20.6422 21.1279C20.4234 21.3518 20.145 21.4638 19.8069 21.4638C19.4689 21.4638 19.1905 21.3518 18.9717 21.1279ZM7.7558 13.4339C9.24728 13.4339 10.5152 12.8998 11.5597 11.8316C12.6033 10.7626 13.1251 9.46482 13.1251 7.93824C13.1251 6.41166 12.6033 5.11385 11.5597 4.04484C10.5152 2.97664 9.24728 2.44254 7.7558 2.44254C6.26433 2.44254 4.99637 2.97664 3.95194 4.04484C2.9083 5.11385 2.38649 6.41166 2.38649 7.93824C2.38649 9.46482 2.9083 10.7626 3.95194 11.8316C4.99637 12.8998 6.26433 13.4339 7.7558 13.4339Z" fill="white"/>
</svg>
