<svg width="28" height="28" viewBox="0 0 28 28" fill="none" xmlns="http://www.w3.org/2000/svg">
<g clip-path="url(#clip0_87_4062)">
<path d="M14 8.16669C12.4529 8.16669 10.9691 8.78127 9.87517 9.87523C8.78121 10.9692 8.16663 12.4529 8.16663 14C8.16663 15.5471 8.78121 17.0308 9.87517 18.1248C10.9691 19.2188 12.4529 19.8334 14 19.8334C15.5471 19.8334 17.0308 19.2188 18.1247 18.1248C19.2187 17.0308 19.8333 15.5471 19.8333 14C19.8333 12.4529 19.2187 10.9692 18.1247 9.87523C17.0308 8.78127 15.5471 8.16669 14 8.16669Z" fill="#1c1e21"/>
<path fill-rule="evenodd" clip-rule="evenodd" d="M14 1.16669C14.3094 1.16669 14.6061 1.2896 14.8249 1.5084C15.0437 1.72719 15.1666 2.02393 15.1666 2.33335V3.50002C15.1666 3.80944 15.0437 4.10619 14.8249 4.32498C14.6061 4.54377 14.3094 4.66669 14 4.66669C13.6905 4.66669 13.3938 4.54377 13.175 4.32498C12.9562 4.10619 12.8333 3.80944 12.8333 3.50002V2.33335C12.8333 2.02393 12.9562 1.72719 13.175 1.5084C13.3938 1.2896 13.6905 1.16669 14 1.16669ZM3.84179 3.84185C4.06057 3.62314 4.35727 3.50027 4.66663 3.50027C4.97598 3.50027 5.27268 3.62314 5.49146 3.84185L7.24146 5.59185C7.45398 5.81189 7.57157 6.10659 7.56891 6.41249C7.56625 6.71838 7.44356 7.011 7.22725 7.22731C7.01094 7.44362 6.71832 7.56631 6.41243 7.56897C6.10653 7.57163 5.81183 7.45404 5.59179 7.24152L3.84179 5.49152C3.62308 5.27274 3.50021 4.97604 3.50021 4.66669C3.50021 4.35733 3.62308 4.06064 3.84179 3.84185ZM24.1581 3.84185C24.3768 4.06064 24.4997 4.35733 24.4997 4.66669C24.4997 4.97604 24.3768 5.27274 24.1581 5.49152L22.4081 7.24152C22.3005 7.35295 22.1718 7.44183 22.0294 7.50297C21.8871 7.56412 21.734 7.5963 21.5791 7.59764C21.4242 7.59899 21.2706 7.56947 21.1272 7.51081C20.9838 7.45215 20.8535 7.36552 20.744 7.25598C20.6345 7.14644 20.5478 7.01618 20.4892 6.8728C20.4305 6.72942 20.401 6.57579 20.4023 6.42088C20.4037 6.26598 20.4359 6.11289 20.497 5.97055C20.5581 5.82821 20.647 5.69947 20.7585 5.59185L22.5085 3.84185C22.7272 3.62314 23.0239 3.50027 23.3333 3.50027C23.6426 3.50027 23.9393 3.62314 24.1581 3.84185ZM1.16663 14C1.16663 13.6906 1.28954 13.3939 1.50833 13.1751C1.72713 12.9563 2.02387 12.8334 2.33329 12.8334H3.49996C3.80938 12.8334 4.10612 12.9563 4.32492 13.1751C4.54371 13.3939 4.66663 13.6906 4.66663 14C4.66663 14.3094 4.54371 14.6062 4.32492 14.825C4.10612 15.0438 3.80938 15.1667 3.49996 15.1667H2.33329C2.02387 15.1667 1.72713 15.0438 1.50833 14.825C1.28954 14.6062 1.16663 14.3094 1.16663 14ZM23.3333 14C23.3333 13.6906 23.4562 13.3939 23.675 13.1751C23.8938 12.9563 24.1905 12.8334 24.5 12.8334H25.6666C25.976 12.8334 26.2728 12.9563 26.4916 13.1751C26.7104 13.3939 26.8333 13.6906 26.8333 14C26.8333 14.3094 26.7104 14.6062 26.4916 14.825C26.2728 15.0438 25.976 15.1667 25.6666 15.1667H24.5C24.1905 15.1667 23.8938 15.0438 23.675 14.825C23.4562 14.6062 23.3333 14.3094 23.3333 14ZM7.24146 20.7585C7.46017 20.9773 7.58304 21.274 7.58304 21.5834C7.58304 21.8927 7.46017 22.1894 7.24146 22.4082L5.49146 24.1582C5.27142 24.3707 4.97672 24.4883 4.67082 24.4856C4.36493 24.483 4.07231 24.3603 3.856 24.144C3.63969 23.9277 3.517 23.635 3.51434 23.3292C3.51168 23.0233 3.62927 22.7286 3.84179 22.5085L5.59179 20.7585C5.81057 20.5398 6.10727 20.4169 6.41663 20.4169C6.72598 20.4169 7.02268 20.5398 7.24146 20.7585ZM20.7585 20.7585C20.9772 20.5398 21.2739 20.4169 21.5833 20.4169C21.8926 20.4169 22.1893 20.5398 22.4081 20.7585L24.1581 22.5085C24.3706 22.7286 24.4882 23.0233 24.4856 23.3292C24.4829 23.635 24.3602 23.9277 24.1439 24.144C23.9276 24.3603 23.635 24.483 23.3291 24.4856C23.0232 24.4883 22.7285 24.3707 22.5085 24.1582L20.7585 22.4082C20.5397 22.1894 20.4169 21.8927 20.4169 21.5834C20.4169 21.274 20.5397 20.9773 20.7585 20.7585ZM14 23.3334C14.3094 23.3334 14.6061 23.4563 14.8249 23.6751C15.0437 23.8939 15.1666 24.1906 15.1666 24.5V25.6667C15.1666 25.9761 15.0437 26.2729 14.8249 26.4916C14.6061 26.7104 14.3094 26.8334 14 26.8334C13.6905 26.8334 13.3938 26.7104 13.175 26.4916C12.9562 26.2729 12.8333 25.9761 12.8333 25.6667V24.5C12.8333 24.1906 12.9562 23.8939 13.175 23.6751C13.3938 23.4563 13.6905 23.3334 14 23.3334Z" fill="#1c1e21"/>
</g>
<defs>
<clipPath id="clip0_87_4062">
<rect width="28" height="28" fill="#1c1e21"/>
</clipPath>
</defs>
</svg>
